<svg xmlns="http://www.w3.org/2000/svg" viewBox="0 0 1440 320"><path fill="#9926f0" fill-opacity="1" d="M0,256L10.4,218.7C20.9,181,42,107,63,117.3C83.5,128,104,224,125,234.7C146.1,245,167,171,188,138.7C208.7,107,230,117,250,112C271.3,107,292,85,313,106.7C333.9,128,355,192,376,208C396.5,224,417,192,438,197.3C459.1,203,480,245,501,218.7C521.7,192,543,96,563,53.3C584.3,11,605,21,626,26.7C647,32,668,32,689,58.7C709.6,85,730,139,751,149.3C772.2,160,793,128,814,112C834.8,96,856,96,877,112C897.4,128,918,160,939,144C960,128,981,64,1002,42.7C1022.6,21,1043,43,1064,69.3C1085.2,96,1106,128,1127,138.7C1147.8,149,1169,139,1190,149.3C1210.4,160,1231,192,1252,192C1273,192,1294,160,1315,138.7C1335.7,117,1357,107,1377,133.3C1398.3,160,1419,224,1430,256L1440,288L1440,320L1429.6,320C1419.1,320,1398,320,1377,320C1356.5,320,1336,320,1315,320C1293.9,320,1273,320,1252,320C1231.3,320,1210,320,1190,320C1168.7,320,1148,320,1127,320C1106.1,320,1085,320,1064,320C1043.5,320,1023,320,1002,320C980.9,320,960,320,939,320C918.3,320,897,320,877,320C855.7,320,835,320,814,320C793,320,772,320,751,320C730.4,320,710,320,689,320C667.8,320,647,320,626,320C605.2,320,584,320,563,320C542.6,320,522,320,501,320C480,320,459,320,438,320C417.4,320,397,320,376,320C354.8,320,334,320,313,320C292.2,320,271,320,250,320C229.6,320,209,320,188,320C167,320,146,320,125,320C104.3,320,83,320,63,320C41.7,320,21,320,10,320L0,320Z"></path></svg>